<?xml version="1.0" encoding="utf-8"?>
<!-- Generator: Adobe Illustrator 23.0.1, SVG Export Plug-In . SVG Version: 6.00 Build 0)  -->
<svg version="1.1" id="Layer_1" xmlns="http://www.w3.org/2000/svg" xmlns:xlink="http://www.w3.org/1999/xlink" x="0px" y="0px"
	 viewBox="0 0 100 100" style="enable-background:new 0 0 100 100;" xml:space="preserve">
<path d="M89,8H11c-3.31,0-6,2.69-6,6v72c0,3.31,2.69,6,6,6h78c3.31,0,6-2.69,6-6V14C95,10.69,92.31,8,89,8z M11,12h78
	c1.1,0,2,0.9,2,2v4H9v-4C9,12.9,9.9,12,11,12z M89,88H11c-1.1,0-2-0.9-2-2V22h82v64C91,87.1,90.1,88,89,88z M45,30c0,1.1-0.9,2-2,2
	H17c-1.1,0-2-0.9-2-2s0.9-2,2-2h26C44.1,28,45,28.9,45,30z M15,40c0-1.1,0.9-2,2-2h20c1.1,0,2,0.9,2,2s-0.9,2-2,2H17
	C15.9,42,15,41.1,15,40z M39,70c0,1.1-0.9,2-2,2H17c-1.1,0-2-0.9-2-2s0.9-2,2-2h20C38.1,68,39,68.9,39,70z M45,60c0,1.1-0.9,2-2,2
	H17c-1.1,0-2-0.9-2-2s0.9-2,2-2h26C44.1,58,45,58.9,45,60z M83,28H53c-1.1,0-2,0.9-2,2v50c0,1.1,0.9,2,2,2h30c1.1,0,2-0.9,2-2V30
	C85,28.9,84.1,28,83,28z M81,78H55V32h26V78z"/>
</svg>
