<?xml version="1.0" encoding="utf-8"?>
<!-- Generator: Adobe Illustrator 21.0.2, SVG Export Plug-In . SVG Version: 6.00 Build 0)  -->
<svg version="1.1" id="Layer_1" xmlns="http://www.w3.org/2000/svg" xmlns:xlink="http://www.w3.org/1999/xlink" x="0px" y="0px"
	 viewBox="0 0 100 100" style="enable-background:new 0 0 100 100;" xml:space="preserve">
<path d="M90,40c1.1,0,2-0.9,2-2s-0.9-2-2-2h-6v-8h6c1.1,0,2-0.9,2-2s-0.9-2-2-2h-6v-6c0-1.1-0.9-2-2-2h-6v-6c0-1.1-0.9-2-2-2
	s-2,0.9-2,2v6h-8v-6c0-1.1-0.9-2-2-2s-2,0.9-2,2v6h-8v-6c0-1.1-0.9-2-2-2s-2,0.9-2,2v6h-8v-6c0-1.1-0.9-2-2-2s-2,0.9-2,2v6h-8v-6
	c0-1.1-0.9-2-2-2s-2,0.9-2,2v6h-6c-1.1,0-2,0.9-2,2v6h-6c-1.1,0-2,0.9-2,2s0.9,2,2,2h6v8h-6c-1.1,0-2,0.9-2,2s0.9,2,2,2h6v8h-6
	c-1.1,0-2,0.9-2,2s0.9,2,2,2h6v8h-6c-1.1,0-2,0.9-2,2s0.9,2,2,2h6v8h-6c-1.1,0-2,0.9-2,2s0.9,2,2,2h6v6c0,1.1,0.9,2,2,2h6v6
	c0,1.1,0.9,2,2,2s2-0.9,2-2v-6h8v6c0,1.1,0.9,2,2,2s2-0.9,2-2v-6h5c1.1,0,2-0.9,2-2c0-1.7,1.3-3,3-3s3,1.3,3,3c0,1.1,0.9,2,2,2h5v6
	c0,1.1,0.9,2,2,2s2-0.9,2-2v-6h8v6c0,1.1,0.9,2,2,2s2-0.9,2-2v-6h6c1.1,0,2-0.9,2-2v-6h6c1.1,0,2-0.9,2-2s-0.9-2-2-2h-6v-8h6
	c1.1,0,2-0.9,2-2s-0.9-2-2-2h-6v-8h6c1.1,0,2-0.9,2-2s-0.9-2-2-2h-6v-8H90z M80,80H56.7c-0.9-2.9-3.5-5-6.7-5s-5.8,2.1-6.7,5H20V20
	h60V80z M70,48h-4V36c0-1.1-0.9-2-2-2H52v-4c0-1.1-0.9-2-2-2s-2,0.9-2,2v4H36c-1.1,0-2,0.9-2,2v12h-4c-1.1,0-2,0.9-2,2s0.9,2,2,2h4
	v12c0,1.1,0.9,2,2,2h28c1.1,0,2-0.9,2-2V52h4c1.1,0,2-0.9,2-2S71.1,48,70,48z M62,62H38V38h24V62z"/>
</svg>
