<?xml version="1.0" standalone="no"?>
<!DOCTYPE svg PUBLIC "-//W3C//DTD SVG 20010904//EN"
 "http://www.w3.org/TR/2001/REC-SVG-20010904/DTD/svg10.dtd">
<svg version="1.0" xmlns="http://www.w3.org/2000/svg"
 width="700.000000pt" height="700.000000pt" viewBox="0 0 700.000000 700.000000"
 preserveAspectRatio="xMidYMid meet">
<metadata>
Created by potrace 1.11, written by Peter Selinger 2001-2013
</metadata>
<g transform="translate(0.000000,700.000000) scale(0.100000,-0.100000)"
fill="#000000" stroke="none">
<path d="M680 6429 c-105 -21 -207 -93 -264 -188 -71 -117 -66 104 -66 -2752
0 -2497 1 -2578 19 -2631 28 -83 46 -112 101 -167 63 -63 118 -96 195 -115 53
-14 358 -16 2835 -16 1869 0 2790 4 2820 11 159 36 290 171 320 328 7 36 10
919 10 2614 0 2329 -2 2565 -16 2616 -25 84 -49 125 -108 185 -61 61 -136 101
-215 116 -67 13 -5566 12 -5631 -1z m5603 -283 c17 -7 43 -26 57 -40 24 -27
25 -32 28 -197 l4 -169 -2871 0 -2871 0 0 153 c0 172 9 204 69 244 l34 23
2759 0 c2318 0 2764 -2 2791 -14z m87 -2938 c0 -2125 -1 -2255 -18 -2288 -9
-19 -32 -45 -51 -57 l-34 -23 -2761 0 c-2610 0 -2763 1 -2796 17 -19 10 -45
33 -57 52 l-23 34 0 2258 0 2259 2870 0 2870 0 0 -2252z"/>
<path d="M1131 5022 c-52 -26 -76 -65 -76 -122 0 -57 24 -96 76 -123 32 -16
97 -17 975 -17 l942 0 33 23 c67 44 87 127 46 188 -49 73 16 69 -1027 69 -870
0 -937 -1 -969 -18z"/>
<path d="M3639 5017 c-19 -12 -42 -38 -51 -57 -17 -33 -18 -140 -18 -1810 0
-1670 1 -1777 18 -1810 9 -19 32 -45 51 -57 l34 -23 1093 2 c1087 3 1093 3
1121 24 15 11 36 36 45 55 17 32 18 139 18 1809 0 1670 -1 1777 -18 1809 -9
19 -30 44 -45 55 -28 21 -34 21 -1121 24 l-1093 2 -34 -23z m2031 -1867 l0
-1610 -910 0 -910 0 0 1610 0 1610 910 0 910 0 0 -1610z"/>
<path d="M1119 4317 c-93 -62 -87 -189 12 -239 31 -17 89 -18 759 -18 670 0
728 1 759 18 75 37 102 128 59 192 -49 73 -8 70 -824 70 l-731 0 -34 -23z"/>
<path d="M1119 2917 c-39 -26 -69 -79 -69 -122 0 -40 32 -90 72 -115 32 -20
53 -20 979 -20 l946 0 34 23 c90 60 88 181 -4 237 -31 19 -58 20 -978 20
l-946 0 -34 -23z"/>
<path d="M1119 2217 c-90 -60 -88 -181 4 -237 31 -19 56 -20 762 -20 675 0
733 1 764 18 75 37 102 128 59 192 -49 73 -8 70 -824 70 l-731 0 -34 -23z"/>
</g>
</svg>
